<svg 
 xmlns="http://www.w3.org/2000/svg"
 xmlns:xlink="http://www.w3.org/1999/xlink"
 width="109px" height="19px">
<path fill-rule="evenodd"  fill="rgb(0, 0, 0)"
 d="M104.604,2.306 L104.604,18.055 L102.468,18.055 L102.468,2.306 L98.671,2.306 L98.671,0.557 L108.401,0.557 L108.401,2.306 L104.604,2.306 ZM96.381,11.568 C96.009,12.060 95.542,12.410 94.981,12.618 C94.419,12.827 93.751,12.931 92.976,12.931 C92.612,12.931 92.200,12.906 91.742,12.856 C91.283,12.806 90.903,12.747 90.602,12.681 L90.602,18.055 L88.467,18.055 L88.467,0.806 C89.068,0.623 89.673,0.494 90.282,0.419 C90.891,0.344 91.552,0.306 92.264,0.306 C93.213,0.306 94.020,0.411 94.684,0.619 C95.349,0.827 95.887,1.173 96.298,1.656 C96.709,2.140 97.010,2.781 97.200,3.581 C97.390,4.381 97.485,5.373 97.485,6.556 C97.485,7.773 97.394,8.789 97.212,9.606 C97.030,10.423 96.753,11.077 96.381,11.568 ZM95.171,4.306 C95.052,3.706 94.866,3.231 94.613,2.881 C94.360,2.531 94.040,2.286 93.652,2.144 C93.264,2.002 92.801,1.931 92.264,1.931 L90.602,1.931 L90.602,11.181 L92.264,11.181 C92.801,11.181 93.264,11.110 93.652,10.968 C94.040,10.827 94.360,10.581 94.613,10.231 C94.866,9.881 95.052,9.406 95.171,8.806 C95.290,8.206 95.349,7.456 95.349,6.556 C95.349,5.656 95.290,4.906 95.171,4.306 ZM83.127,13.556 L78.381,13.556 L77.313,18.055 L75.177,18.055 L79.211,0.557 L82.296,0.557 L86.331,18.055 L84.195,18.055 L83.127,13.556 ZM80.801,3.056 L80.706,3.056 L78.737,11.806 L82.771,11.806 L80.801,3.056 ZM70.549,5.056 L70.430,5.056 L66.989,15.805 L64.853,15.805 L61.412,5.056 L61.294,5.056 L60.582,18.055 L58.446,18.055 L59.395,0.557 L62.006,0.557 L65.874,12.556 L65.969,12.556 L69.837,0.557 L72.448,0.557 L73.397,18.055 L71.261,18.055 L70.549,5.056 ZM54.601,16.430 C54.158,17.114 53.624,17.597 52.999,17.880 C52.374,18.163 51.658,18.305 50.851,18.305 C50.045,18.305 49.329,18.163 48.704,17.880 C48.079,17.597 47.545,17.114 47.102,16.430 C46.659,15.747 46.322,14.827 46.093,13.668 C45.864,12.510 45.749,11.056 45.749,9.306 C45.749,7.556 45.864,6.102 46.093,4.944 C46.322,3.786 46.659,2.865 47.102,2.181 C47.545,1.498 48.079,1.015 48.704,0.731 C49.329,0.448 50.045,0.306 50.851,0.306 C51.658,0.306 52.374,0.448 52.999,0.731 C53.624,1.015 54.158,1.498 54.601,2.181 C55.044,2.865 55.380,3.786 55.610,4.944 C55.839,6.102 55.954,7.556 55.954,9.306 C55.954,11.056 55.839,12.510 55.610,13.668 C55.380,14.827 55.044,15.747 54.601,16.430 ZM53.569,5.606 C53.403,4.640 53.185,3.873 52.916,3.306 C52.647,2.740 52.331,2.348 51.967,2.131 C51.603,1.915 51.231,1.806 50.851,1.806 C50.472,1.806 50.100,1.915 49.736,2.131 C49.372,2.348 49.056,2.740 48.787,3.306 C48.518,3.873 48.300,4.640 48.134,5.606 C47.968,6.573 47.885,7.806 47.885,9.306 C47.885,10.806 47.968,12.039 48.134,13.006 C48.300,13.972 48.518,14.739 48.787,15.305 C49.056,15.872 49.372,16.264 49.736,16.480 C50.100,16.697 50.472,16.805 50.851,16.805 C51.231,16.805 51.603,16.697 51.967,16.480 C52.331,16.264 52.647,15.872 52.916,15.305 C53.185,14.739 53.403,13.972 53.569,13.006 C53.735,12.039 53.818,10.806 53.818,9.306 C53.818,7.806 53.735,6.573 53.569,5.606 ZM40.765,10.056 L35.782,10.056 L35.782,18.055 L33.646,18.055 L33.646,0.557 L35.782,0.557 L35.782,8.306 L40.765,8.306 L40.765,0.557 L42.901,0.557 L42.901,18.055 L40.765,18.055 L40.765,10.056 ZM29.493,18.055 L26.526,10.556 L23.560,18.055 L21.424,18.055 L24.984,9.056 L21.780,0.557 L23.916,0.557 L26.526,7.556 L29.137,0.557 L31.273,0.557 L28.069,9.056 L31.629,18.055 L29.493,18.055 ZM12.050,0.557 L20.119,0.557 L20.119,2.306 L14.186,2.306 L14.186,8.056 L19.407,8.056 L19.407,9.806 L14.186,9.806 L14.186,16.305 L20.119,16.305 L20.119,18.055 L12.050,18.055 L12.050,0.557 ZM6.354,18.055 L4.218,18.055 L4.218,2.306 L0.421,2.306 L0.421,0.557 L10.151,0.557 L10.151,2.306 L6.354,2.306 L6.354,18.055 Z"/>
</svg>